<?xml version="1.0" encoding="UTF-8" standalone="no"?>
<!-- Created with Inkscape (http://www.inkscape.org/) -->

<svg
   width="126.75605mm"
   height="86.936226mm"
   viewBox="0 0 126.75603 86.936226"
   version="1.1"
   id="svg1"
   xml:space="preserve"
   inkscape:version="1.4.2 (2aeb623e1d, 2025-05-12)"
   sodipodi:docname="logo.svg"
   inkscape:export-filename="../75617d4a/logo.png"
   inkscape:export-xdpi="160.30794"
   inkscape:export-ydpi="160.30794"
   xmlns:inkscape="http://www.inkscape.org/namespaces/inkscape"
   xmlns:sodipodi="http://sodipodi.sourceforge.net/DTD/sodipodi-0.dtd"
   xmlns="http://www.w3.org/2000/svg"
   xmlns:svg="http://www.w3.org/2000/svg"><sodipodi:namedview
     id="namedview1"
     pagecolor="#ffffff"
     bordercolor="#000000"
     borderopacity="0.25"
     inkscape:showpageshadow="2"
     inkscape:pageopacity="0.0"
     inkscape:pagecheckerboard="0"
     inkscape:deskcolor="#d1d1d1"
     inkscape:document-units="mm"
     showguides="true"
     inkscape:zoom="0.67793911"
     inkscape:cx="75.227995"
     inkscape:cy="263.29798"
     inkscape:window-width="1728"
     inkscape:window-height="1011"
     inkscape:window-x="0"
     inkscape:window-y="0"
     inkscape:window-maximized="1"
     inkscape:current-layer="layer2" /><defs
     id="defs1" /><g
     inkscape:groupmode="layer"
     id="layer2"
     inkscape:label="Layer 2"
     transform="translate(-40.302251,-47.811441)"><rect
       style="opacity:0;fill:#ff0000;stroke:#ff0000;stroke-width:0.385"
       id="rect1"
       width="19.480108"
       height="17.253811"
       x="54.086182"
       y="50.135838" /><path
       id="rect2"
       style="opacity:1;fill:#008780;fill-opacity:1;stroke:none;stroke-width:0.335566"
       d="m 63.19268,53.24302 c -2.158391,0 -3.896063,1.903043 -3.896063,4.267 v 10.905537 h -5.611215 l -2.606874,-2.43295 a 3.7387976,3.7387976 0 0 0 0.442667,-1.765267 3.7387976,3.7387976 0 0 0 -3.738845,-3.738353 3.7387976,3.7387976 0 0 0 -3.738845,3.738353 3.7387976,3.7387976 0 0 0 3.738845,3.738846 3.7387976,3.7387976 0 0 0 1.725961,-0.422524 l 3.062315,3.177772 h 6.725991 v 3.67301 h -6.749573 a 3.7387976,3.7387976 0 0 0 -3.143872,-1.715152 3.7387976,3.7387976 0 0 0 -3.738846,3.738354 3.7387976,3.7387976 0 0 0 3.738846,3.738845 3.7387976,3.7387976 0 0 0 3.709366,-3.269647 h 6.184079 v 3.533479 h -6.705356 l -3.144363,3.262769 a 3.7387976,3.7387976 0 0 0 -2.283595,-0.778231 3.7387976,3.7387976 0 0 0 -3.738844,3.738354 3.7387976,3.7387976 0 0 0 3.738844,3.738845 3.7387976,3.7387976 0 0 0 3.738846,-3.738845 3.7387976,3.7387976 0 0 0 -0.133145,-0.989492 l 2.937033,-2.937524 h 5.59058 v 7.318016 c 0,2.363957 1.737672,4.267 3.896063,4.267 h 33.627005 c 2.158391,0 3.896065,-1.903043 3.896065,-4.267 V 75.913883 h 9.02334 l -4.11568,4.115677 c -0.67225,0.672263 -0.69332,1.733737 -0.0472,2.37989 0.64615,0.646153 1.70763,0.625097 2.37989,-0.04717 1.44302,-1.443023 6.54756,-6.464176 7.30917,-7.30868 0.76161,-0.844504 0.8972,-2.283087 0.0658,-3.114394 -0.83131,-0.831307 -7.41382,-7.413819 -7.41382,-7.413819 -1.51709,-1.540278 -3.96843,0.697472 -2.33322,2.332724 l 4.18496,4.184951 h -9.05332 V 57.51002 c 0,-2.363957 -1.737672,-4.267 -3.896063,-4.267 z m 1.555478,2.98125 a 1.9423837,1.9423837 0 0 1 1.942627,1.942627 1.9423837,1.9423837 0 0 1 -1.942627,1.942136 1.9423837,1.9423837 0 0 1 -1.942137,-1.942136 1.9423837,1.9423837 0 0 1 1.942137,-1.942627 z m 31.183244,0.222562 a 1.9423837,1.9423837 0 0 1 1.942136,1.942136 1.9423837,1.9423837 0 0 1 -1.942136,1.942627 1.9423837,1.9423837 0 0 1 -1.942627,-1.942627 1.9423837,1.9423837 0 0 1 1.942627,-1.942136 z m -15.599974,0.44758 A 16.791794,16.791794 0 0 1 97.123313,73.685806 16.791794,16.791794 0 0 1 80.331428,90.477691 16.791794,16.791794 0 0 1 63.539543,73.685806 16.791794,16.791794 0 0 1 80.331428,56.894412 Z m -32.588383,6.012122 a 1.3774517,1.3774517 0 0 1 1.377133,1.377624 1.3774517,1.3774517 0 0 1 -1.377133,1.377624 1.3774517,1.3774517 0 0 1 -1.377624,-1.377624 1.3774517,1.3774517 0 0 1 1.377624,-1.377624 z m 1.620822,12.190306 a 1.3774517,1.3774517 0 0 1 1.377133,1.377624 1.3774517,1.3774517 0 0 1 -1.377133,1.377624 1.3774517,1.3774517 0 0 1 -1.377625,-1.377624 1.3774517,1.3774517 0 0 1 1.377625,-1.377624 z m -2.239868,10.225568 a 1.3774517,1.3774517 0 0 1 1.377133,1.377625 1.3774517,1.3774517 0 0 1 -1.377133,1.377624 1.3774517,1.3774517 0 0 1 -1.377624,-1.377624 1.3774517,1.3774517 0 0 1 1.377624,-1.377625 z m 17.477749,1.659635 a 1.9423837,1.9423837 0 0 1 1.942627,1.942627 1.9423837,1.9423837 0 0 1 -1.942627,1.942136 1.9423837,1.9423837 0 0 1 -1.942135,-1.942136 1.9423837,1.9423837 0 0 1 1.942135,-1.942627 z m 31.421528,0.04078 a 1.9423837,1.9423837 0 0 1 1.942627,1.942135 1.9423837,1.9423837 0 0 1 -1.942627,1.942627 1.9423837,1.9423837 0 0 1 -1.942135,-1.942627 1.9423837,1.9423837 0 0 1 1.942135,-1.942135 z" /><path
       style="fill:#003357;fill-opacity:1;stroke-width:1"
       d="m 111.04419,105.01082 h 5.10436 v 2.42469 l 0.88555,-0.80936 c 1.67287,-1.52891 3.80828,-2.24562 6.7056,-2.2506 4.12813,-0.007 7.4832,1.95555 9.13536,5.34404 0.73332,1.50401 0.99517,2.63247 1.09114,4.7024 0.26475,5.71036 -2.51628,9.94041 -7.39931,11.25462 -1.4487,0.38989 -3.75096,0.46515 -5.15447,0.1685 -1.46962,-0.31065 -3.20498,-1.14561 -4.19841,-2.02006 l -0.74644,-0.65705 v 9.43829 h -5.42338 z m 13.87468,16.38764 c 1.23027,-0.45965 2.67778,-1.9311 3.17543,-3.22795 0.75521,-1.96799 0.61055,-4.7129 -0.34306,-6.51007 -1.05129,-1.98121 -2.82208,-3.00283 -5.22224,-3.01288 -1.76124,-0.008 -2.86844,0.39947 -4.0661,1.49407 -2.10955,1.928 -2.75033,5.66931 -1.42603,8.32612 1.40172,2.81214 4.80875,4.07895 7.882,2.93071 z m -30.304343,4.42819 c -4.646067,-0.88626 -7.51101,-3.58733 -8.38618,-7.90647 -0.319853,-1.57853 -0.240577,-4.27286 0.170979,-5.8111 1.015507,-3.79556 4.00918,-6.72144 7.670878,-7.49718 0.606437,-0.12847 1.898657,-0.23483 2.8716,-0.23635 3.106856,-0.005 5.427126,0.842 7.167816,2.61615 1.15337,1.17557 1.68616,2.04769 2.21118,3.61954 0.3996,1.19634 0.7356,3.55341 0.7356,5.16032 v 0.88359 l -7.217887,0.002 c -3.969829,9.5e-4 -7.487054,0.0462 -7.816046,0.10063 -0.714583,0.11811 -0.74325,0.29544 -0.257609,1.59342 1.436782,3.84015 6.965861,4.79405 12.809122,2.20988 0.49302,-0.21803 0.93024,-0.39643 0.97161,-0.39643 0.0414,0 0.0752,0.93061 0.0752,2.06803 0,2.36689 0.15968,2.12023 -1.79415,2.77149 -2.73755,0.91247 -6.827023,1.2777 -9.212113,0.82273 z m 7.214483,-12.92991 c 0.17779,-0.17779 -0.3261,-1.85126 -0.77909,-2.58739 -1.565597,-2.5442 -5.782354,-2.80399 -8.016631,-0.4939 -0.684949,0.70819 -0.995602,1.26918 -1.380515,2.49302 l -0.213216,0.67792 h 5.149906 c 2.832432,0 5.190226,-0.0403 5.239546,-0.0897 z m -47.797172,12.75803 c -1.826874,-0.21536 -3.515566,-0.87803 -5.117317,-1.74276 l -0.04365,-2.75112 c -0.02401,-1.5131 -0.0012,-2.75112 0.05052,-2.75112 0.0518,0 0.326882,0.17751 0.611313,0.39446 2.399388,1.83011 7.865578,3.17853 10.388095,2.02694 1.528628,-0.69785 2.312914,-1.76323 2.312914,-3.14199 -0.08053,-2.67639 -3.430459,-3.35893 -5.441665,-4.06654 -3.382333,-1.17879 -4.714869,-1.8748 -5.956659,-3.11131 -1.126639,-1.12185 -1.602479,-2.00958 -1.938914,-3.61728 -0.582774,-2.78486 0.432336,-5.82423 2.487888,-7.449055 1.686014,-1.332714 3.480597,-1.905162 6.398437,-2.041023 2.972632,-0.182351 5.881593,0.416062 8.59821,1.584707 v 2.612301 c 0,1.43675 -0.04608,2.61229 -0.102398,2.61229 -0.536969,0 -2.330881,-2.16205 -7.314882,-2.30714 -2.336688,-0.0681 -4.736455,0.64809 -4.501732,3.42943 0.183124,1.36529 1.312709,2.1386 5.094323,3.48756 5.447793,1.94331 7.395364,3.48744 8.175285,6.48177 1.518321,5.82922 -3.714024,11.90214 -13.699774,10.34988 z m 22.880795,0.006 c -2.211292,-0.61851 -3.505815,-2.02272 -4.06973,-4.41456 -0.184938,-0.78442 -0.236741,-2.22282 -0.238587,-6.62475 l -0.0024,-5.62277 -3.269983,6e-5 0.03449,-1.87429 c 0.01898,-1.03086 0.03692,-1.92812 0.03987,-1.99392 1.033186,-0.19391 2.138807,-0.11964 3.195608,-0.11964 v -2.71169 -2.711689 h 5.263876 v 2.711689 2.71169 h 5.75194 l -0.04465,2.03377 -0.04465,2.03377 -5.662653,-0.10382 v 4.9279 c 0,3.93969 0.04851,5.09124 0.241892,5.74243 0.502589,1.6924 2.125152,2.27361 4.543449,1.62747 0.991954,-0.26504 0.957069,-0.33775 0.957069,1.99496 v 2.14591 l -0.598169,0.18304 c -1.002413,0.30674 -5.077123,0.34975 -6.097442,0.0644 z m 78.356207,0.008 c -5.29382,-1.03455 -4.59892,-6.35108 -4.63347,-10.48871 l -0.0496,-6.18106 h -3.173 v -3.98779 h 3.19022 v -5.423384 h 5.07182 l -0.0471,5.423454 5.50314,-7e-5 v 3.98779 h -5.42339 l -0.0194,3.38961 c -0.0274,4.79857 0.0184,6.49348 0.19376,7.17076 0.20579,0.79482 0.82823,1.50014 1.52751,1.73092 0.55275,0.18243 2.13643,0.13335 3.36256,-0.10421 l 0.51841,-0.10043 v 4.31766 l -0.43866,0.0894 c -2.2349,0.45529 -3.77488,0.50387 -5.58276,0.1761 z M 138.79916,97.832812 h 5.74241 v 27.754978 h -5.74241 z"
       id="path5"
       sodipodi:nodetypes="cccscsssssccccssscssscssscssscccssssscccssscscscsssssssssscsssssssscssccssccccccccccsssscsccssccccccccccccssccsssccccc"
       inkscape:label="Text" /><circle
       style="opacity:1;fill:#003359;fill-opacity:1;stroke:none;stroke-width:0.385"
       id="path7-9"
       cx="80.331474"
       cy="73.686028"
       r="14.233669" /><path
       id="path7-2"
       style="opacity:1;fill:#00b9ce;fill-opacity:1;stroke:none;stroke-width:0.385"
       d="m 80.331446,66.011854 a 7.6743747,7.6743747 0 0 0 -7.674213,7.674213 7.6743747,7.6743747 0 0 0 7.674213,7.674213 7.6743747,7.6743747 0 0 0 7.674213,-7.674213 7.6743747,7.6743747 0 0 0 -7.674213,-7.674213 z m 0,2.875619 a 4.7987396,4.7987396 0 0 1 4.798594,4.798594 4.7987396,4.7987396 0 0 1 -4.798594,4.798594 4.7987396,4.7987396 0 0 1 -4.798594,-4.798594 4.7987396,4.7987396 0 0 1 4.798594,-4.798594 z" /><circle
       style="opacity:1;fill:#00b9ce;fill-opacity:1;stroke:none;stroke-width:0.385"
       id="path7"
       cx="71.433624"
       cy="73.697495"
       r="1.4841987" /><circle
       style="fill:#00b9ce;fill-opacity:1;stroke:none;stroke-width:0.385"
       id="path7-6"
       cx="88.801353"
       cy="73.697495"
       r="1.4841987" /><circle
       style="fill:#00b9ce;fill-opacity:1;stroke:none;stroke-width:0.385"
       id="path7-1"
       cx="65.013626"
       cy="-80.349396"
       r="1.4841987"
       transform="rotate(90)" /><circle
       style="fill:#00b9ce;fill-opacity:1;stroke:none;stroke-width:0.385"
       id="path7-6-4"
       cx="82.381355"
       cy="-80.349396"
       r="1.4841987"
       transform="rotate(90)" /></g></svg>
